# xmcd
#
# Track frame offsets:
#	182
#	21272
#	33060
#	55800
#	60875
#	77935
#	89420
#	108927
#	122097
#	129712
#	151675
#	166575
#	190440
#	205527
#	215512
#	227380
#
# Disc length: 3729 seconds
#
# Revision: 0
# Processed by: cddbd v1.4PL0 Copyright (c) Steve Scherf et al.
# Submitted via: dBpowerAMP V4.0
#
DISCID=c10e8f10
DTITLE=Greenhorns - Branded
DYEAR=1994
DGENRE=Blues
TTITLE0=Sizzlin' Sally
TTITLE1=Warpath
TTITLE2=Taylor-Made Trouble
TTITLE3=Branded
TTITLE4=Shubang Boogie
TTITLE5=Hula Blues
TTITLE6=No Doctor
TTITLE7=Grapes And Peaches
TTITLE8=Designated Driver Team
TTITLE9=Doggin' In The Doorway
TTITLE10=Down At Gypsy's Ball
TTITLE11=Born Vicious
TTITLE12=Community Blues
TTITLE13=Jimmy's Breakdown
TTITLE14=My Way Or The Highway
TTITLE15=The Final Groove II (The Return)
EXTD=
EXTT0=
EXTT1=
EXTT2=
EXTT3=
EXTT4=
EXTT5=
EXTT6=
EXTT7=
EXTT8=
EXTT9=
EXTT10=
EXTT11=
EXTT12=
EXTT13=
EXTT14=
EXTT15=
PLAYORDER=
